<?xml version="1.0" standalone="no"?><!DOCTYPE svg PUBLIC "-//W3C//DTD SVG 1.1//EN" "http://www.w3.org/Graphics/SVG/1.1/DTD/svg11.dtd"><svg t="1752859647390" class="icon" viewBox="0 0 1024 1024" version="1.1" xmlns="http://www.w3.org/2000/svg" p-id="1491" xmlns:xlink="http://www.w3.org/1999/xlink" width="200" height="200"><path d="M512 42.666667c259.2 0 469.333333 210.133333 469.333333 469.333333s-210.133333 469.333333-469.333333 469.333333S42.666667 771.2 42.666667 512 252.8 42.666667 512 42.666667zM258.389333 629.589333a36.266667 36.266667 0 0 0-65.749333 30.592 353.237333 353.237333 0 0 0 175.232 173.056 36.266667 36.266667 0 1 0 29.738667-66.176 280.704 280.704 0 0 1-139.221334-137.472zM512 373.504a138.496 138.496 0 1 0 0 276.992 138.496 138.496 0 0 0 0-276.992z" p-id="1492" fill="#2c2c2c"></path></svg>